<svg xmlns="http://www.w3.org/2000/svg" viewBox="0 0 32 32" width="32" height="32">
  <!-- leaves -->
  <g fill="#7CFF6B">
    <path d="M16 1c-1.5 2-2 4-1.5 6.5C13 6 11 5 9 5c1 2.5 2.5 4 4.8 5.2C11 9.5 8.5 9.8 6.5 11c2.4 1.2 4.6 1.4 7 1.1-2.2 1-4 2.6-5.2 4.7 2.5-.4 4.4-1.6 6-3.5-.5 2.4-.3 4.6.6 6.8 1.2-2.1 1.5-4.2 1.1-6.6.8 2 2.2 3.6 4.2 4.8.2-2.4-.4-4.5-1.8-6.4 1.9 1.1 3.9 1.3 6 .8-1.4-1.9-3.2-3-5.5-3.6 2.2-.4 4-1.6 5.4-3.6-2.2-.4-4.2 0-6.1 1.1C19.4 8.7 20.6 7 21 4.8c-2 .6-3.6 1.8-4.7 3.6.3-2.5-.2-4.7-1.3-6.9C15 1.3 15.5 1.1 16 1z"/>
  </g>
  <!-- body -->
  <g>
    <ellipse cx="16" cy="21" rx="9" ry="10" fill="#FFD60A"/>
    <ellipse cx="16" cy="21" rx="9" ry="10" fill="none" stroke="#E0A800" stroke-width="0.6"/>
    <g stroke="#C98A00" stroke-width="1" stroke-linecap="round" opacity="0.85">
      <path d="M9 16l7 5M23 16l-7 5M16 11v20M7 22l9 4M25 22l-9 4M8 27l8-2M24 27l-8-2"/>
    </g>
  </g>
</svg>
